<svg width="500" height="175" viewBox="0 0 500 175" fill="none" xmlns="http://www.w3.org/2000/svg">
<g clip-path="url(#clip0_353_235)">
<path d="M125.843 57.6L130.843 50.4L108.643 51H92.843V33.2H164.243L122.843 100.8L117.843 108.4L139.443 107.6L162.643 107.2V125H84.043L125.843 57.6ZM206.073 127C195.139 127 186.006 124.867 178.673 120.6C171.339 116.2 165.939 110.4 162.473 103.2C159.006 95.8667 157.273 87.8667 157.273 79.2C157.273 69.4667 159.273 60.9333 163.273 53.6C167.406 46.2667 173.073 40.6667 180.273 36.8C187.473 32.8 195.606 30.8 204.673 30.8C218.806 30.8 229.273 34.7333 236.073 42.6C243.006 50.3333 246.473 61.2667 246.473 75.4C246.473 79 246.273 82.7333 245.873 86.6H179.873C181.339 94.7333 184.206 100.6 188.473 104.2C192.873 107.8 198.939 109.6 206.673 109.6C213.073 109.6 218.339 109.067 222.473 108C226.606 106.933 230.406 105.467 233.873 103.6L240.473 119C237.139 121.133 232.606 123 226.873 124.6C221.139 126.2 214.206 127 206.073 127ZM225.473 71.6C225.606 63.3333 223.806 57.5333 220.073 54.2C216.339 50.7333 211.006 49 204.073 49C190.073 49 182.006 56.5333 179.873 71.6H225.473ZM246.518 33.2H268.118V51.2C270.251 45.0667 273.718 40.1333 278.518 36.4C283.318 32.6667 288.785 30.8 294.918 30.8C299.185 30.8 302.118 31.2 303.718 32L300.718 53.8C299.518 53 296.918 52.6 292.918 52.6C286.651 52.6 280.918 54.6 275.718 58.6C270.651 62.6 268.118 69 268.118 77.8V125H246.518V33.2ZM339.793 127C330.326 127 321.926 124.867 314.593 120.6C307.26 116.333 301.593 110.533 297.593 103.2C293.593 95.8667 291.593 87.7333 291.593 78.8C291.593 70 293.526 61.9333 297.393 54.6C301.393 47.2667 307.06 41.4667 314.393 37.2C321.726 32.9333 330.193 30.8 339.793 30.8C349.393 30.8 357.793 32.9333 364.993 37.2C372.326 41.4667 377.926 47.2667 381.793 54.6C385.793 61.9333 387.793 70 387.793 78.8C387.793 87.7333 385.793 95.8667 381.793 103.2C377.793 110.533 372.126 116.333 364.793 120.6C357.593 124.867 349.26 127 339.793 127ZM340.393 109.4C348.126 109.4 354.193 106.533 358.593 100.8C363.126 95.0667 365.393 87.8667 365.393 79.2C365.393 70.5333 362.993 63.2667 358.193 57.4C353.393 51.4 347.06 48.4 339.193 48.4C331.593 48.4 325.46 51.3333 320.793 57.2C316.26 63.0667 313.993 70.4 313.993 79.2C313.993 87.7333 316.46 94.9333 321.393 100.8C326.326 106.533 332.66 109.4 340.393 109.4ZM399.754 127C395.754 127 392.354 125.667 389.554 123C386.754 120.2 385.354 116.8 385.354 112.8C385.354 108.667 386.687 105.267 389.354 102.6C392.154 99.8 395.621 98.4 399.754 98.4C403.887 98.4 407.287 99.8 409.954 102.6C412.754 105.267 414.154 108.667 414.154 112.8C414.154 116.8 412.754 120.2 409.954 123C407.287 125.667 403.887 127 399.754 127Z" fill="white"/>
<path d="M220.95 130.936V133.4H214.294V151H211.574V133.4H204.918V130.936H220.95ZM236.862 143V130.936H239.582V143C239.582 145.816 238.92 147.896 237.597 149.24C236.296 150.584 234.27 151.256 231.518 151.256C228.744 151.256 226.718 150.605 225.438 149.304C224.179 147.981 223.549 145.88 223.549 143V130.936H226.27V143C226.27 145.112 226.654 146.595 227.422 147.448C228.211 148.28 229.576 148.696 231.518 148.696C233.48 148.696 234.856 148.28 235.646 147.448C236.456 146.595 236.862 145.112 236.862 143ZM246.712 143.8V151H243.992V130.936H250.808C253.645 130.936 255.672 131.427 256.888 132.408C258.125 133.368 258.744 134.968 258.744 137.208C258.744 138.957 258.349 140.355 257.56 141.4C256.792 142.424 255.618 143.117 254.04 143.48L259.288 151H256.024L251.16 143.8H246.712ZM255.992 137.208C255.992 135.843 255.597 134.872 254.808 134.296C254.018 133.699 252.685 133.4 250.808 133.4H246.712V141.4H250.808C252.642 141.4 253.965 141.069 254.776 140.408C255.586 139.747 255.992 138.68 255.992 137.208ZM265.243 142.744V151H262.523V130.936H275.387V133.4H265.243V140.344H274.203V142.744H265.243ZM302.247 130.936V151H299.687V135.192L293.959 147H291.623L285.895 135.16V151H283.335V130.936H286.759L292.839 143.704L298.951 130.936H302.247ZM307.699 151H304.819L312.755 130.936H315.571L323.411 151H320.531L318.707 146.168H309.523L307.699 151ZM314.099 133.432C313.885 134.179 313.629 134.968 313.331 135.8C313.053 136.632 312.765 137.464 312.467 138.296L310.419 143.768H317.811L315.763 138.296C315.336 137.123 314.995 136.173 314.739 135.448C314.504 134.723 314.291 134.051 314.099 133.432ZM333.522 148.696C334.397 148.696 335.314 148.6 336.274 148.408C337.255 148.195 338.162 147.917 338.994 147.576V150.008C337.821 150.477 336.775 150.808 335.858 151C334.962 151.171 334.023 151.256 333.042 151.256C329.97 151.256 327.805 150.467 326.546 148.888C325.287 147.288 324.658 144.632 324.658 140.92C324.658 137.357 325.383 134.755 326.834 133.112C328.306 131.448 330.642 130.616 333.842 130.616C334.823 130.616 335.698 130.637 336.466 130.68C337.234 130.723 337.927 130.797 338.546 130.904V133.304C337.799 133.219 337.042 133.165 336.274 133.144C335.527 133.101 334.717 133.08 333.842 133.08C331.453 133.08 329.789 133.677 328.85 134.872C327.911 136.045 327.442 138.061 327.442 140.92C327.442 143.821 327.869 145.848 328.722 147C329.575 148.131 331.175 148.696 333.522 148.696ZM344.837 151H342.117V130.936H344.837V139.576H355.333V130.936H358.053V151H355.333V142.072H344.837V151ZM365.368 130.936V151H362.648V130.936H365.368ZM386.376 130.936V151H383.624L372.52 135.384V151H369.96V130.936H372.712L383.816 146.776V130.936H386.376ZM404.304 148.44V151H390.992V130.936H404.016V133.4H393.712V139.544H402.832V141.944H393.712V148.44H404.304ZM415.486 142.584L410.622 141.432C409.278 141.112 408.307 140.568 407.71 139.8C407.112 139.011 406.814 137.923 406.814 136.536C406.814 134.509 407.39 133.016 408.542 132.056C409.715 131.096 411.528 130.616 413.982 130.616C415.006 130.616 415.923 130.669 416.734 130.776C417.566 130.861 418.334 131 419.038 131.192V133.656C418.142 133.443 417.288 133.293 416.478 133.208C415.667 133.123 414.824 133.08 413.95 133.08C412.307 133.08 411.155 133.325 410.494 133.816C409.832 134.285 409.502 135.128 409.502 136.344C409.502 137.112 409.651 137.699 409.95 138.104C410.27 138.488 410.782 138.765 411.486 138.936L416.318 140.088C418.024 140.493 419.155 141.069 419.71 141.816C420.286 142.541 420.574 143.672 420.574 145.208C420.574 147.405 419.998 148.963 418.846 149.88C417.715 150.797 415.912 151.256 413.438 151.256C412.136 151.256 410.878 151.171 409.661 151C408.467 150.829 407.518 150.605 406.814 150.328V147.768C407.816 148.067 408.883 148.301 410.014 148.472C411.144 148.621 412.286 148.696 413.438 148.696C415.038 148.696 416.158 148.461 416.798 147.992C417.438 147.523 417.758 146.616 417.758 145.272C417.758 144.44 417.598 143.843 417.278 143.48C416.979 143.096 416.382 142.797 415.486 142.584Z" fill="white"/>
<g clip-path="url(#clip1_353_235)">
<path d="M125.843 57.6L130.843 50.4L108.643 51H92.843V33.2H164.243L122.843 100.8L117.843 108.4L139.443 107.6L162.643 107.2V125H84.043L125.843 57.6ZM206.073 127C195.139 127 186.006 124.867 178.673 120.6C171.339 116.2 165.939 110.4 162.473 103.2C159.006 95.8667 157.273 87.8667 157.273 79.2C157.273 69.4667 159.273 60.9333 163.273 53.6C167.406 46.2667 173.073 40.6667 180.273 36.8C187.473 32.8 195.606 30.8 204.673 30.8C218.806 30.8 229.273 34.7333 236.073 42.6C243.006 50.3333 246.473 61.2667 246.473 75.4C246.473 79 246.273 82.7333 245.873 86.6H179.873C181.339 94.7333 184.206 100.6 188.473 104.2C192.873 107.8 198.939 109.6 206.673 109.6C213.073 109.6 218.339 109.067 222.473 108C226.606 106.933 230.406 105.467 233.873 103.6L240.473 119C237.139 121.133 232.606 123 226.873 124.6C221.139 126.2 214.206 127 206.073 127ZM225.473 71.6C225.606 63.3333 223.806 57.5333 220.073 54.2C216.339 50.7333 211.006 49 204.073 49C190.073 49 182.006 56.5333 179.873 71.6H225.473ZM246.518 33.2H268.118V51.2C270.251 45.0667 273.718 40.1333 278.518 36.4C283.318 32.6667 288.785 30.8 294.918 30.8C299.185 30.8 302.118 31.2 303.718 32L300.718 53.8C299.518 53 296.918 52.6 292.918 52.6C286.651 52.6 280.918 54.6 275.718 58.6C270.651 62.6 268.118 69 268.118 77.8V125H246.518V33.2ZM339.793 127C330.326 127 321.926 124.867 314.593 120.6C307.26 116.333 301.593 110.533 297.593 103.2C293.593 95.8667 291.593 87.7333 291.593 78.8C291.593 70 293.526 61.9333 297.393 54.6C301.393 47.2667 307.06 41.4667 314.393 37.2C321.726 32.9333 330.193 30.8 339.793 30.8C349.393 30.8 357.793 32.9333 364.993 37.2C372.326 41.4667 377.926 47.2667 381.793 54.6C385.793 61.9333 387.793 70 387.793 78.8C387.793 87.7333 385.793 95.8667 381.793 103.2C377.793 110.533 372.126 116.333 364.793 120.6C357.593 124.867 349.26 127 339.793 127ZM340.393 109.4C348.126 109.4 354.193 106.533 358.593 100.8C363.126 95.0667 365.393 87.8667 365.393 79.2C365.393 70.5333 362.993 63.2667 358.193 57.4C353.393 51.4 347.06 48.4 339.193 48.4C331.593 48.4 325.46 51.3333 320.793 57.2C316.26 63.0667 313.993 70.4 313.993 79.2C313.993 87.7333 316.46 94.9333 321.393 100.8C326.326 106.533 332.66 109.4 340.393 109.4ZM399.754 127C395.754 127 392.354 125.667 389.554 123C386.754 120.2 385.354 116.8 385.354 112.8C385.354 108.667 386.687 105.267 389.354 102.6C392.154 99.8 395.621 98.4 399.754 98.4C403.887 98.4 407.287 99.8 409.954 102.6C412.754 105.267 414.154 108.667 414.154 112.8C414.154 116.8 412.754 120.2 409.954 123C407.287 125.667 403.887 127 399.754 127Z" fill="white"/>
</g>
</g>
<defs>
<clipPath id="clip0_353_235">
<rect width="500" height="175" fill="white"/>
</clipPath>
<clipPath id="clip1_353_235">
<rect width="168" height="31" fill="white" transform="translate(75 100)"/>
</clipPath>
</defs>
</svg>
