<svg width="448" height="175" viewBox="0 0 448 175" fill="none" xmlns="http://www.w3.org/2000/svg">
<g clip-path="url(#clip0_353_46)">
<path d="M65.1797 126L106.98 58.6L111.98 51.4L89.7797 52H73.9797V34.2H145.38L103.98 101.8L98.9797 109.4L120.58 108.2H143.78V126H65.1797ZM183.498 128C172.032 128 162.698 125.8 155.498 121.4C148.298 116.867 143.032 110.933 139.698 103.6C136.365 96.2667 134.698 88.4667 134.698 80.2C134.698 70.2 136.698 61.6 140.698 54.4C144.832 47.2 150.498 41.6667 157.698 37.8C164.898 33.8 173.032 31.8 182.098 31.8C196.632 31.8 207.232 35.8667 213.898 44C220.565 52 223.898 62.8 223.898 76.4C223.898 80 223.698 83.7333 223.298 87.6H157.298C158.765 95.8667 161.698 101.8 166.098 105.4C170.632 108.867 176.632 110.6 184.098 110.6C191.298 110.6 196.965 109.933 201.098 108.6C205.232 107.267 208.632 105.933 211.298 104.6L217.898 120C215.232 121.733 211.098 123.533 205.498 125.4C199.898 127.133 192.565 128 183.498 128ZM157.298 72.6H202.898C203.032 63.9333 201.098 58 197.098 54.8C193.098 51.6 187.898 50 181.498 50C174.832 50 169.365 51.8 165.098 55.4C160.965 58.8667 158.365 64.6 157.298 72.6ZM222.577 126V34.2H244.177V52.2C246.31 46.2 249.71 41.3333 254.377 37.6C259.177 33.7333 264.71 31.8 270.977 31.8C275.243 31.8 278.177 32.2 279.777 33L276.777 54.8C275.577 54 272.977 53.6 268.977 53.6C265.643 53.6 262.043 54.3333 258.177 55.8C254.31 57.2667 250.977 59.8667 248.177 63.6C245.51 67.2 244.177 72.2667 244.177 78.8V126H222.577ZM312.141 128C302.541 128 294.074 125.867 286.741 121.6C279.541 117.333 273.941 111.533 269.941 104.2C265.941 96.8667 263.941 88.7333 263.941 79.8C263.941 71 265.874 63 269.741 55.8C273.741 48.4667 279.341 42.6667 286.541 38.4C293.741 34 302.274 31.8 312.141 31.8C322.007 31.8 330.541 34 337.741 38.4C344.941 42.6667 350.474 48.4667 354.341 55.8C358.207 63 360.141 71 360.141 79.8C360.141 88.7333 358.141 96.8667 354.141 104.2C350.274 111.533 344.741 117.333 337.541 121.6C330.341 125.867 321.874 128 312.141 128ZM312.741 110.4C320.741 110.4 326.874 107.467 331.141 101.6C335.541 95.7333 337.741 88.6 337.741 80.2C337.741 74.4667 336.674 69.3333 334.541 64.8C332.407 60.1333 329.341 56.4 325.341 53.6C321.474 50.8 316.874 49.4 311.541 49.4C306.341 49.4 301.874 50.8 298.141 53.6C294.407 56.4 291.474 60.1333 289.341 64.8C287.341 69.3333 286.341 74.4667 286.341 80.2C286.341 85.8 287.474 90.9333 289.741 95.6C292.007 100.133 295.074 103.733 298.941 106.4C302.941 109.067 307.541 110.4 312.741 110.4ZM361.502 128C357.502 128 354.102 126.667 351.302 124C348.502 121.2 347.102 117.8 347.102 113.8C347.102 109.667 348.435 106.267 351.102 103.6C353.902 100.8 357.368 99.4 361.502 99.4C365.768 99.4 369.235 100.8 371.902 103.6C374.568 106.267 375.902 109.667 375.902 113.8C375.902 117.8 374.502 121.2 371.702 124C369.035 126.667 365.635 128 361.502 128Z" fill="black"/>
<path d="M186.95 131.936V134.4H180.294V152H177.574V134.4H170.918V131.936H186.95ZM202.862 144V131.936H205.582V144C205.582 146.816 204.92 148.896 203.597 150.24C202.296 151.584 200.27 152.256 197.518 152.256C194.744 152.256 192.718 151.605 191.438 150.304C190.179 148.981 189.549 146.88 189.549 144V131.936H192.27V144C192.27 146.112 192.654 147.595 193.422 148.448C194.211 149.28 195.576 149.696 197.518 149.696C199.48 149.696 200.856 149.28 201.646 148.448C202.456 147.595 202.862 146.112 202.862 144ZM212.712 144.8V152H209.992V131.936H216.808C219.645 131.936 221.672 132.427 222.888 133.408C224.125 134.368 224.744 135.968 224.744 138.208C224.744 139.957 224.349 141.355 223.56 142.4C222.792 143.424 221.618 144.117 220.04 144.48L225.288 152H222.024L217.16 144.8H212.712ZM221.992 138.208C221.992 136.843 221.597 135.872 220.808 135.296C220.018 134.699 218.685 134.4 216.808 134.4H212.712V142.4H216.808C218.642 142.4 219.965 142.069 220.776 141.408C221.586 140.747 221.992 139.68 221.992 138.208ZM231.243 143.744V152H228.523V131.936H241.387V134.4H231.243V141.344H240.203V143.744H231.243ZM268.247 131.936V152H265.687V136.192L259.959 148H257.623L251.895 136.16V152H249.335V131.936H252.759L258.839 144.704L264.951 131.936H268.247ZM273.699 152H270.819L278.755 131.936H281.571L289.411 152H286.531L284.707 147.168H275.523L273.699 152ZM280.099 134.432C279.885 135.179 279.629 135.968 279.331 136.8C279.053 137.632 278.765 138.464 278.467 139.296L276.419 144.768H283.811L281.763 139.296C281.336 138.123 280.995 137.173 280.739 136.448C280.504 135.723 280.291 135.051 280.099 134.432ZM299.522 149.696C300.397 149.696 301.314 149.6 302.274 149.408C303.255 149.195 304.162 148.917 304.994 148.576V151.008C303.821 151.477 302.775 151.808 301.858 152C300.962 152.171 300.023 152.256 299.042 152.256C295.97 152.256 293.805 151.467 292.546 149.888C291.287 148.288 290.658 145.632 290.658 141.92C290.658 138.357 291.383 135.755 292.834 134.112C294.306 132.448 296.642 131.616 299.842 131.616C300.823 131.616 301.698 131.637 302.466 131.68C303.234 131.723 303.927 131.797 304.546 131.904V134.304C303.799 134.219 303.042 134.165 302.274 134.144C301.527 134.101 300.717 134.08 299.842 134.08C297.453 134.08 295.789 134.677 294.85 135.872C293.911 137.045 293.442 139.061 293.442 141.92C293.442 144.821 293.869 146.848 294.722 148C295.575 149.131 297.175 149.696 299.522 149.696ZM310.837 152H308.117V131.936H310.837V140.576H321.333V131.936H324.053V152H321.333V143.072H310.837V152ZM331.368 131.936V152H328.648V131.936H331.368ZM352.376 131.936V152H349.624L338.52 136.384V152H335.96V131.936H338.712L349.816 147.776V131.936H352.376ZM370.304 149.44V152H356.992V131.936H370.016V134.4H359.712V140.544H368.832V142.944H359.712V149.44H370.304ZM381.486 143.584L376.622 142.432C375.278 142.112 374.307 141.568 373.71 140.8C373.112 140.011 372.814 138.923 372.814 137.536C372.814 135.509 373.39 134.016 374.542 133.056C375.715 132.096 377.528 131.616 379.982 131.616C381.006 131.616 381.923 131.669 382.734 131.776C383.566 131.861 384.334 132 385.038 132.192V134.656C384.142 134.443 383.288 134.293 382.478 134.208C381.667 134.123 380.824 134.08 379.95 134.08C378.307 134.08 377.155 134.325 376.494 134.816C375.832 135.285 375.502 136.128 375.502 137.344C375.502 138.112 375.651 138.699 375.95 139.104C376.27 139.488 376.782 139.765 377.486 139.936L382.318 141.088C384.024 141.493 385.155 142.069 385.71 142.816C386.286 143.541 386.574 144.672 386.574 146.208C386.574 148.405 385.998 149.963 384.846 150.88C383.715 151.797 381.912 152.256 379.438 152.256C378.136 152.256 376.878 152.171 375.661 152C374.467 151.829 373.518 151.605 372.814 151.328V148.768C373.816 149.067 374.883 149.301 376.014 149.472C377.144 149.621 378.286 149.696 379.438 149.696C381.038 149.696 382.158 149.461 382.798 148.992C383.438 148.523 383.758 147.616 383.758 146.272C383.758 145.44 383.598 144.843 383.278 144.48C382.979 144.096 382.382 143.797 381.486 143.584Z" fill="black"/>
</g>
<defs>
<clipPath id="clip0_353_46">
<rect width="448" height="175" fill="white"/>
</clipPath>
</defs>
</svg>
