<svg width="342" height="122" viewBox="0 0 342 122" fill="none" xmlns="http://www.w3.org/2000/svg">
<g clip-path="url(#clip0_539_46)">
<path d="M19.1797 95L60.9797 27.6L65.9797 20.4L43.7797 21H27.9797V3.2H99.3797L57.9797 70.8L52.9797 78.4L74.5797 77.2H97.7797V95H19.1797ZM137.498 97C126.032 97 116.698 94.8 109.498 90.4C102.298 85.8667 97.0318 79.9333 93.6984 72.6C90.3651 65.2667 88.6984 57.4667 88.6984 49.2C88.6984 39.2 90.6984 30.6 94.6984 23.4C98.8318 16.2 104.498 10.6667 111.698 6.8C118.898 2.8 127.032 0.799997 136.098 0.799997C150.632 0.799997 161.232 4.86666 167.898 13C174.565 21 177.898 31.8 177.898 45.4C177.898 49 177.698 52.7333 177.298 56.6H111.298C112.765 64.8667 115.698 70.8 120.098 74.4C124.632 77.8667 130.632 79.6 138.098 79.6C145.298 79.6 150.965 78.9333 155.098 77.6C159.232 76.2667 162.632 74.9333 165.298 73.6L171.898 89C169.232 90.7333 165.098 92.5333 159.498 94.4C153.898 96.1333 146.565 97 137.498 97ZM111.298 41.6H156.898C157.032 32.9333 155.098 27 151.098 23.8C147.098 20.6 141.898 19 135.498 19C128.832 19 123.365 20.8 119.098 24.4C114.965 27.8667 112.365 33.6 111.298 41.6ZM176.577 95V3.2H198.177V21.2C200.31 15.2 203.71 10.3333 208.377 6.59999C213.177 2.73333 218.71 0.799997 224.977 0.799997C229.243 0.799997 232.177 1.2 233.777 1.99999L230.777 23.8C229.577 23 226.977 22.6 222.977 22.6C219.643 22.6 216.043 23.3333 212.177 24.8C208.31 26.2667 204.977 28.8667 202.177 32.6C199.51 36.2 198.177 41.2667 198.177 47.8V95H176.577ZM266.141 97C256.541 97 248.074 94.8667 240.741 90.6C233.541 86.3333 227.941 80.5333 223.941 73.2C219.941 65.8667 217.941 57.7333 217.941 48.8C217.941 40 219.874 32 223.741 24.8C227.741 17.4667 233.341 11.6667 240.541 7.4C247.741 3 256.274 0.799997 266.141 0.799997C276.007 0.799997 284.541 3 291.741 7.4C298.941 11.6667 304.474 17.4667 308.341 24.8C312.207 32 314.141 40 314.141 48.8C314.141 57.7333 312.141 65.8667 308.141 73.2C304.274 80.5333 298.741 86.3333 291.541 90.6C284.341 94.8667 275.874 97 266.141 97ZM266.741 79.4C274.741 79.4 280.874 76.4667 285.141 70.6C289.541 64.7333 291.741 57.6 291.741 49.2C291.741 43.4667 290.674 38.3333 288.541 33.8C286.407 29.1333 283.341 25.4 279.341 22.6C275.474 19.8 270.874 18.4 265.541 18.4C260.341 18.4 255.874 19.8 252.141 22.6C248.407 25.4 245.474 29.1333 243.341 33.8C241.341 38.3333 240.341 43.4667 240.341 49.2C240.341 54.8 241.474 59.9333 243.741 64.6C246.007 69.1333 249.074 72.7333 252.941 75.4C256.941 78.0667 261.541 79.4 266.741 79.4ZM315.502 97C311.502 97 308.102 95.6667 305.302 93C302.502 90.2 301.102 86.8 301.102 82.8C301.102 78.6667 302.435 75.2667 305.102 72.6C307.902 69.8 311.368 68.4 315.502 68.4C319.768 68.4 323.235 69.8 325.902 72.6C328.568 75.2667 329.902 78.6667 329.902 82.8C329.902 86.8 328.502 90.2 325.702 93C323.035 95.6667 319.635 97 315.502 97Z" fill="black"/>
<path d="M140.95 100.936V103.4H134.294V121H131.574V103.4H124.918V100.936H140.95ZM156.862 113V100.936H159.582V113C159.582 115.816 158.92 117.896 157.597 119.24C156.296 120.584 154.27 121.256 151.518 121.256C148.744 121.256 146.718 120.605 145.438 119.304C144.179 117.981 143.549 115.88 143.549 113V100.936H146.27V113C146.27 115.112 146.654 116.595 147.422 117.448C148.211 118.28 149.576 118.696 151.518 118.696C153.48 118.696 154.856 118.28 155.646 117.448C156.456 116.595 156.862 115.112 156.862 113ZM166.712 113.8V121H163.992V100.936H170.808C173.645 100.936 175.672 101.427 176.888 102.408C178.125 103.368 178.744 104.968 178.744 107.208C178.744 108.957 178.349 110.355 177.56 111.4C176.792 112.424 175.618 113.117 174.04 113.48L179.288 121H176.024L171.16 113.8H166.712ZM175.992 107.208C175.992 105.843 175.597 104.872 174.808 104.296C174.018 103.699 172.685 103.4 170.808 103.4H166.712V111.4H170.808C172.642 111.4 173.965 111.069 174.776 110.408C175.586 109.747 175.992 108.68 175.992 107.208ZM185.243 112.744V121H182.523V100.936H195.387V103.4H185.243V110.344H194.203V112.744H185.243ZM222.247 100.936V121H219.687V105.192L213.959 117H211.623L205.895 105.16V121H203.335V100.936H206.759L212.839 113.704L218.951 100.936H222.247ZM227.699 121H224.819L232.755 100.936H235.571L243.411 121H240.531L238.707 116.168H229.523L227.699 121ZM234.099 103.432C233.885 104.179 233.629 104.968 233.331 105.8C233.053 106.632 232.765 107.464 232.467 108.296L230.419 113.768H237.811L235.763 108.296C235.336 107.123 234.995 106.173 234.739 105.448C234.504 104.723 234.291 104.051 234.099 103.432ZM253.522 118.696C254.397 118.696 255.314 118.6 256.274 118.408C257.255 118.195 258.162 117.917 258.994 117.576V120.008C257.821 120.477 256.775 120.808 255.858 121C254.962 121.171 254.023 121.256 253.042 121.256C249.97 121.256 247.805 120.467 246.546 118.888C245.287 117.288 244.658 114.632 244.658 110.92C244.658 107.357 245.383 104.755 246.834 103.112C248.306 101.448 250.642 100.616 253.842 100.616C254.823 100.616 255.698 100.637 256.466 100.68C257.234 100.723 257.927 100.797 258.546 100.904V103.304C257.799 103.219 257.042 103.165 256.274 103.144C255.527 103.101 254.717 103.08 253.842 103.08C251.453 103.08 249.789 103.677 248.85 104.872C247.911 106.045 247.442 108.061 247.442 110.92C247.442 113.821 247.869 115.848 248.722 117C249.575 118.131 251.175 118.696 253.522 118.696ZM264.837 121H262.117V100.936H264.837V109.576H275.333V100.936H278.053V121H275.333V112.072H264.837V121ZM285.368 100.936V121H282.648V100.936H285.368ZM306.376 100.936V121H303.624L292.52 105.384V121H289.96V100.936H292.712L303.816 116.776V100.936H306.376ZM324.304 118.44V121H310.992V100.936H324.016V103.4H313.712V109.544H322.832V111.944H313.712V118.44H324.304ZM335.486 112.584L330.622 111.432C329.278 111.112 328.307 110.568 327.71 109.8C327.112 109.011 326.814 107.923 326.814 106.536C326.814 104.509 327.39 103.016 328.542 102.056C329.715 101.096 331.528 100.616 333.982 100.616C335.006 100.616 335.923 100.669 336.734 100.776C337.566 100.861 338.334 101 339.038 101.192V103.656C338.142 103.443 337.288 103.293 336.478 103.208C335.667 103.123 334.824 103.08 333.95 103.08C332.307 103.08 331.155 103.325 330.494 103.816C329.832 104.285 329.502 105.128 329.502 106.344C329.502 107.112 329.651 107.699 329.95 108.104C330.27 108.488 330.782 108.765 331.486 108.936L336.318 110.088C338.024 110.493 339.155 111.069 339.71 111.816C340.286 112.541 340.574 113.672 340.574 115.208C340.574 117.405 339.998 118.963 338.846 119.88C337.715 120.797 335.912 121.256 333.438 121.256C332.136 121.256 330.878 121.171 329.661 121C328.467 120.829 327.518 120.605 326.814 120.328V117.768C327.816 118.067 328.883 118.301 330.014 118.472C331.144 118.621 332.286 118.696 333.438 118.696C335.038 118.696 336.158 118.461 336.798 117.992C337.438 117.523 337.758 116.616 337.758 115.272C337.758 114.44 337.598 113.843 337.278 113.48C336.979 113.096 336.382 112.797 335.486 112.584Z" fill="black"/>
</g>
<defs>
<clipPath id="clip0_539_46">
<rect width="342" height="122" fill="white"/>
</clipPath>
</defs>
</svg>
